<?xml version="1.0" encoding="utf-8"?>
<!-- Generator: Adobe Illustrator 16.0.0, SVG Export Plug-In . SVG Version: 6.00 Build 0)  -->
<!DOCTYPE svg PUBLIC "-//W3C//DTD SVG 1.1//EN" "http://www.w3.org/Graphics/SVG/1.1/DTD/svg11.dtd">
<svg version="1.1" xmlns="http://www.w3.org/2000/svg" xmlns:xlink="http://www.w3.org/1999/xlink" x="0px" y="0px" width="204px"
	 height="200px" viewBox="0 0 204 200" enable-background="new 0 0 204 200" xml:space="preserve">
<g id="penta">
</g>
<g id="inside">
	<path fill="#AFCF70" d="M-47-729.501c0,32.863-26.639,59.504-59.5,59.504h-36c-32.861,0-59.5-26.641-59.5-59.504l0,0
		c0-32.859,26.639-59.5,59.5-59.5h36C-73.639-789.001-47-762.36-47-729.501L-47-729.501z"/>
	<path fill="#009FE3" d="M-123-664.497c0,28.445-23.057,51.502-51.5,51.502h-26c-28.443,0-51.5-23.057-51.5-51.502l0,0
		c0-28.443,23.057-51.502,51.5-51.502h26C-146.057-715.999-123-692.94-123-664.497L-123-664.497z"/>
	<g>
		
			<line fill="none" stroke="#000000" stroke-width="14" stroke-linejoin="round" stroke-miterlimit="10" x1="-92.102" y1="-580.993" x2="-92.102" y2="-428.972"/>
		
			<line fill="none" stroke="#000000" stroke-width="14" stroke-linejoin="round" stroke-miterlimit="10" x1="-163.529" y1="-504.983" x2="-20.673" y2="-504.983"/>
	</g>
	<g>
		<g id="figure_1_">
			<linearGradient id="SVGID_1_" gradientUnits="userSpaceOnUse" x1="8.792" y1="95.6602" x2="195.123" y2="95.6602">
				<stop  offset="0.335" style="stop-color:#CA9E67"/>
				<stop  offset="0.4233" style="stop-color:#BF915A"/>
				<stop  offset="0.5737" style="stop-color:#B5834E"/>
				<stop  offset="0.7341" style="stop-color:#B17F4A"/>
				<stop  offset="0.9247" style="stop-color:#936037"/>
			</linearGradient>
			<polygon fill="url(#SVGID_1_)" points="159.537,184.268 195.123,74.744 101.957,7.053 8.792,74.744 44.378,184.268 			"/>
			<g>
				<path d="M159.203,183.805l32.068-110.313l1.471,4.527L101.164,8.145h1.587L11.173,78.02l1.471-4.527l36.014,109.385l-4.28-3.109
					L159.203,183.805z M159.537,184.717l-115.159,4.051c-1.963,0.068-3.665-1.193-4.238-2.975l-0.042-0.135L4.94,75.996
					l-0.034-0.105c-0.54-1.684,0.123-3.467,1.505-4.424l94.752-65.508c0.49-0.338,1.124-0.318,1.587,0l94.753,65.508l0.024,0.018
					c1.48,1.023,2.028,2.895,1.446,4.512l-39.01,108.41C159.898,184.592,159.724,184.711,159.537,184.717z"/>
				<g>
					<path d="M156.18,194.6c3.384-4.275,8.422-9.309,12.896-11.988l-9.099,0.301l-7.183-5.59
						C154.84,182.119,155.958,189.152,156.18,194.6z"/>
				</g>
			</g>
		</g>
		<g opacity="0.3">
			<path fill="#AFCF70" d="M107.834,98.639h65.16v-1.939c0-36.16-29.103-65.508-65.16-65.934V98.639z"/>
			<path fill="#AFCF70" d="M93.834,98.639V30.807c-35.306,1.271-63.539,30.275-63.539,65.893v1.939H93.834z"/>
			<path fill="#AFCF70" d="M107.834,112.305v68.877c36.058-0.426,65.16-29.773,65.16-65.932v-2.945H107.834z"/>
			<path fill="#AFCF70" d="M93.834,112.305H30.295v2.945c0,35.615,28.233,64.619,63.539,65.891V112.305z"/>
		</g>
	</g>
</g>
</svg>
