<?xml version="1.0" encoding="utf-8"?>
<!-- Generator: Adobe Illustrator 16.0.0, SVG Export Plug-In . SVG Version: 6.00 Build 0)  -->
<!DOCTYPE svg PUBLIC "-//W3C//DTD SVG 1.1//EN" "http://www.w3.org/Graphics/SVG/1.1/DTD/svg11.dtd">
<svg version="1.1" id="inside" xmlns="http://www.w3.org/2000/svg" xmlns:xlink="http://www.w3.org/1999/xlink" x="0px" y="0px"
	 width="203.99px" height="197.99px" viewBox="0 0 203.99 197.99" enable-background="new 0 0 203.99 197.99" xml:space="preserve">
<g id="figure_1_">
	<linearGradient id="SVGID_1_" gradientUnits="userSpaceOnUse" x1="10.3267" y1="96.1729" x2="196.6577" y2="96.1729">
		<stop  offset="0.335" style="stop-color:#CA9E67"/>
		<stop  offset="0.4233" style="stop-color:#BF915A"/>
		<stop  offset="0.5737" style="stop-color:#B5834E"/>
		<stop  offset="0.7341" style="stop-color:#B17F4A"/>
		<stop  offset="0.9247" style="stop-color:#936037"/>
	</linearGradient>
	<polygon fill="url(#SVGID_1_)" points="161.072,184.78 196.658,75.257 103.492,7.565 10.327,75.257 45.913,184.78 	"/>
	<g>
		<path d="M160.738,184.317l32.068-110.313l1.471,4.527L102.698,8.657h1.587L12.708,78.532l1.471-4.527L50.192,183.39l-4.28-3.109
			L160.738,184.317z M161.072,185.229L45.913,189.28c-1.963,0.068-3.665-1.193-4.238-2.975l-0.042-0.135L6.475,76.509l-0.034-0.105
			c-0.54-1.684,0.123-3.467,1.505-4.424l94.752-65.508c0.49-0.338,1.124-0.318,1.587,0l94.753,65.508l0.024,0.018
			c1.48,1.023,2.028,2.895,1.446,4.512l-39.01,108.41C161.433,185.104,161.258,185.224,161.072,185.229z"/>
		<g>
			<path d="M157.714,195.112c3.384-4.275,8.422-9.309,12.896-11.988l-9.099,0.301l-7.183-5.59
				C156.375,182.632,157.493,189.665,157.714,195.112z"/>
		</g>
	</g>
</g>
<path fill="#AFCF70" d="M-45.465-728.988c0,32.863-26.639,59.504-59.5,59.504h-36c-32.861,0-59.5-26.641-59.5-59.504l0,0
	c0-32.859,26.639-59.5,59.5-59.5h36C-72.104-788.488-45.465-761.848-45.465-728.988L-45.465-728.988z"/>
<path fill="#009FE3" d="M-121.465-663.984c0,28.445-23.057,51.502-51.5,51.502h-26c-28.443,0-51.5-23.057-51.5-51.502l0,0
	c0-28.443,23.057-51.502,51.5-51.502h26C-144.522-715.486-121.465-692.428-121.465-663.984L-121.465-663.984z"/>
<g opacity="0.3">
	
		<line fill="none" stroke="#000000" stroke-width="14" stroke-linejoin="round" stroke-miterlimit="10" x1="-90.567" y1="-580.48" x2="-90.567" y2="-428.459"/>
	
		<line fill="none" stroke="#000000" stroke-width="14" stroke-linejoin="round" stroke-miterlimit="10" x1="-161.995" y1="-504.471" x2="-19.138" y2="-504.471"/>
	<path fill="#AFCF70" d="M109.369,99.151h65.16v-1.939c0-36.16-29.103-65.508-65.16-65.934V99.151z"/>
	<path fill="#AFCF70" d="M95.369,99.151V31.319C60.063,32.591,31.83,61.595,31.83,97.212v1.939H95.369z"/>
	<path fill="#AFCF70" d="M109.369,112.817v68.877c36.058-0.426,65.16-29.773,65.16-65.932v-2.945H109.369z"/>
	<path fill="#AFCF70" d="M95.369,112.817H31.83v2.945c0,35.615,28.233,64.619,63.539,65.891V112.817z"/>
</g>
</svg>
